<?xml version="1.0" encoding="utf-8"?>
<!-- Generator: Adobe Illustrator 27.5.0, SVG Export Plug-In . SVG Version: 6.00 Build 0)  -->
<svg version="1.1" xmlns="http://www.w3.org/2000/svg" xmlns:xlink="http://www.w3.org/1999/xlink" x="0px" y="0px"
	 viewBox="0 0 3710 3710" style="enable-background:new 0 0 3710 3710;" xml:space="preserve">
<g id="Background">
	<g>
		<g>
			<rect style="fill:#FFFFFF;" width="3710" height="3710"/>
		</g>
	</g>
</g>
<g id="Illustration">
	<g>
		<path style="fill:#F4F7FA;" d="M3218.839,2090.106c-165.128,667.352-871.074,1192.843-1595.225,1080.716
			c-552.487-85.506-1022.686-527.784-1140.321-1080.716c-30.247-142.168-37.193-291.692-16.218-444.331
			c93.82-682.407,714.706-1202.526,1431.499-1181.346c728.633,21.522,1295.047,594.608,1351.709,1227.025
			C3262.464,1827.257,3250.728,1961.35,3218.839,2090.106z"/>
		<g>
			<linearGradient id="SVGID_1_" gradientUnits="userSpaceOnUse" x1="573.2183" y1="1081.0822" x2="1261.2653" y2="1081.0822">
				<stop  offset="0" style="stop-color:#AA80F9"/>
				<stop  offset="0.9964" style="stop-color:#6165D7"/>
			</linearGradient>
			<polygon style="fill:url(#SVGID_1_);" points="573.218,1116.451 591.482,1124.983 1261.265,1063.261 1196.683,1037.181 			"/>
			<g>
				<polygon style="fill:#AABBCC;" points="3132.887,2090.106 2414.349,2090.106 2414.349,1073.693 3132.887,1209.174 				"/>
				<g>
					<polygon style="fill:#EAEDF3;" points="3050.769,2090.106 2516.997,2090.106 2516.997,1686.775 3050.769,1727.236 					"/>
					<polygon style="fill:#AABBCC;" points="2516.997,1836.783 2516.997,1829.964 3050.769,1856.024 3050.769,1862.157 					"/>
					<g>
						<polygon style="fill:#AABBCC;" points="2670.969,2090.106 2664.126,2090.106 2664.126,1697.981 2670.969,1698.512 						"/>
						<polygon style="fill:#AABBCC;" points="2924.169,2090.106 2917.326,2090.106 2917.326,1717.184 2924.169,1717.664 						"/>
					</g>
				</g>
			</g>
			
				<linearGradient id="SVGID_00000000926579882009870370000010405200513401496750_" gradientUnits="userSpaceOnUse" x1="2465.6729" y1="1570.993" x2="3153.417" y2="1570.993">
				<stop  offset="0" style="stop-color:#AA80F9"/>
				<stop  offset="0.9964" style="stop-color:#6165D7"/>
			</linearGradient>
			<polygon style="fill:url(#SVGID_00000000926579882009870370000010405200513401496750_);" points="3153.417,1651.016 
				2465.673,1581.381 2465.673,1490.97 3153.417,1573.006 			"/>
			
				<linearGradient id="SVGID_00000168806061957842486190000002234896610099125129_" gradientUnits="userSpaceOnUse" x1="2465.6729" y1="1153.183" x2="3153.417" y2="1153.183">
				<stop  offset="0" style="stop-color:#AA80F9"/>
				<stop  offset="0.9964" style="stop-color:#6165D7"/>
			</linearGradient>
			<polygon style="fill:url(#SVGID_00000168806061957842486190000002234896610099125129_);" points="3153.417,1263.969 
				2465.673,1132.807 2465.673,1042.397 3153.417,1185.959 			"/>
			<g>
				<g>
					<polygon style="fill:#97A6B7;" points="679.591,1246.329 652.218,1248.024 652.218,1070.803 679.591,1068.752 					"/>
					<polygon style="fill:#97A6B7;" points="915.682,1228.785 895.153,1230.55 895.153,1049.648 915.682,1047.51 					"/>
					<polygon style="fill:#97A6B7;" points="1162.038,1210.494 1138.087,1212.334 1138.087,1027.594 1162.038,1025.365 					"/>
				</g>
				
					<linearGradient id="SVGID_00000173127493384295816620000013855738417098869178_" gradientUnits="userSpaceOnUse" x1="573.521" y1="936.1478" x2="1244.1571" y2="936.1478">
					<stop  offset="0" style="stop-color:#AA80F9"/>
					<stop  offset="0.9964" style="stop-color:#6165D7"/>
				</linearGradient>
				<polygon style="fill:url(#SVGID_00000173127493384295816620000013855738417098869178_);" points="1244.157,755.831 
					1244.157,1059.123 573.521,1116.464 573.521,830.037 587.626,828.299 				"/>
				
					<linearGradient id="SVGID_00000052784419962920830470000008824908046031038377_" gradientUnits="userSpaceOnUse" x1="573.521" y1="972.3813" x2="1244.1571" y2="972.3813">
					<stop  offset="0" style="stop-color:#AA80F9"/>
					<stop  offset="0.9964" style="stop-color:#6165D7"/>
				</linearGradient>
				<path style="opacity:0.2;fill:url(#SVGID_00000052784419962920830470000008824908046031038377_);" d="M1244.157,977.302v81.821
					l-670.636,57.341V830.037l15.688-1.739c39.616,0.522,79.323,5.494,116.083,21.316c60.47,26.01,61.129,116.837,131.628,129.182
					c60.438,10.571,118.542-23.75,176.753-34.53C1088.956,930.323,1179.146,939.712,1244.157,977.302z"/>
			</g>
			<polygon style="fill:#BFC8D6;" points="2421.192,2090.106 573.521,2090.106 573.521,1217.889 2421.192,1077.225 			"/>
			<polygon style="fill:#EAEDF3;" points="1404.973,1282.679 1404.973,2090.106 679.591,2090.106 679.591,1330.423 
				757.497,1325.346 			"/>
			
				<linearGradient id="SVGID_00000000199237822253660470000003603534696538182043_" gradientUnits="userSpaceOnUse" x1="563.2561" y1="1155.912" x2="2465.6729" y2="1155.912">
				<stop  offset="0" style="stop-color:#AA80F9"/>
				<stop  offset="0.9964" style="stop-color:#6165D7"/>
			</linearGradient>
			<polygon style="fill:url(#SVGID_00000000199237822253660470000003603534696538182043_);" points="2465.673,1132.807 
				563.256,1269.427 563.256,1191.933 2465.673,1042.397 			"/>
			
				<linearGradient id="SVGID_00000099643512492039661890000017901135441231137449_" gradientUnits="userSpaceOnUse" x1="1528.1509" y1="1554.0244" x2="2465.6729" y2="1554.0244">
				<stop  offset="0" style="stop-color:#AA80F9"/>
				<stop  offset="0.9964" style="stop-color:#6165D7"/>
			</linearGradient>
			<polygon style="fill:url(#SVGID_00000099643512492039661890000017901135441231137449_);" points="2465.673,1581.381 
				1528.151,1617.078 1528.151,1533.025 2465.673,1490.97 			"/>
			<g>
				<polygon style="fill:#AABBCC;" points="850.672,2090.106 843.828,2090.106 843.828,1319.363 850.672,1318.969 				"/>
				<polygon style="fill:#AABBCC;" points="1028.595,2090.106 1021.752,2090.106 1021.752,1307.785 1028.595,1307.379 				"/>
				<polygon style="fill:#AABBCC;" points="1216.784,2090.106 1209.941,2090.106 1209.941,1295.434 1216.784,1295.016 				"/>
			</g>
			<g>
				<polygon style="fill:#AABBCC;" points="679.591,1462.876 679.591,1456.855 1404.973,1417.085 1404.973,1423.484 				"/>
				<polygon style="fill:#AABBCC;" points="679.591,1553.193 679.591,1547.171 1404.973,1513.082 1404.973,1519.482 				"/>
				<polygon style="fill:#AABBCC;" points="679.591,1863.278 679.591,1857.257 1404.973,1842.675 1404.973,1849.074 				"/>
			</g>
			<polygon style="fill:#EAEDF3;" points="2339.073,1682.779 2339.073,2090.106 1582.897,2090.106 1582.897,1707.607 
				1729.194,1702.808 1767.463,1701.592 1774.023,1701.383 2126.419,1689.733 2133.881,1689.525 			"/>
			<polygon style="fill:#AABBCC;" points="1582.897,1849.841 1582.897,1843.375 2339.073,1827.381 2339.073,1834.267 			"/>
			<g>
				<polygon style="fill:#AABBCC;" points="1774.507,1701.313 1774.507,2090.106 1767.664,2090.106 1767.664,1701.522 				"/>
				<polygon style="fill:#AABBCC;" points="2133.776,1689.455 2133.776,2090.106 2130.355,2090.106 2130.355,1689.664 				"/>
			</g>
			<polygon style="fill:#AABBCC;" points="1955.853,2090.106 1949.009,2090.106 1949.009,1835.63 1955.853,1835.559 			"/>
			<path style="opacity:0.5;fill:#FFFFFF;" d="M1404.973,1900.389v189.716H681.474c-0.665-3.593-1.883-6.879-1.883-9.8v-749.883
				l77.119-5.077c43.9,26.253,88.204,75.075,107.099,165.625c43.169,206.9,143.565,262.537,289.676,279.924
				C1223.419,1779.205,1333.119,1823.228,1404.973,1900.389z"/>
			
				<linearGradient id="SVGID_00000013178159025351373330000000303849837638434475_" gradientUnits="userSpaceOnUse" x1="1244.1571" y1="909.9808" x2="1261.2653" y2="909.9808">
				<stop  offset="0" style="stop-color:#AA80F9"/>
				<stop  offset="0.9964" style="stop-color:#6165D7"/>
			</linearGradient>
			<polygon style="fill:url(#SVGID_00000013178159025351373330000000303849837638434475_);" points="1244.157,756.701 
				1261.265,771.167 1261.265,1063.261 1244.157,1059.207 			"/>
			<path style="opacity:0.5;fill:#FFFFFF;" d="M2339.073,1999.284v90.822h-756.176v-382.499l146.298-4.799
				c15.695,15.509,29.463,34.426,37.991,57.48c0.092,0.244,0.565,0.487,0.658,0.73c1.946,5.251,4.176,10.363,6.369,15.301
				c52.923,121.88,165.972,155.714,327.863,166.598c7.756,0.522,15.99,1.252,24.486,2.191c2.04,0.243,5.321,0.487,7.391,0.73
				C2195.095,1953.244,2272.222,1971.257,2339.073,1999.284z"/>
			
				<linearGradient id="SVGID_00000173144116998307882790000002438193635708060554_" gradientUnits="userSpaceOnUse" x1="2323.0427" y1="1816.8223" x2="2660.6421" y2="1677.6768">
				<stop  offset="0" style="stop-color:#AA80F9"/>
				<stop  offset="0.9964" style="stop-color:#6165D7"/>
			</linearGradient>
			<polygon style="fill:url(#SVGID_00000173144116998307882790000002438193635708060554_);" points="3153.417,1651.016 
				3133.493,1660.2 2419.538,1599.636 2466.028,1581.381 			"/>
			
				<linearGradient id="SVGID_00000066516101841628088650000015174460379776701618_" gradientUnits="userSpaceOnUse" x1="1568.7396" y1="1170.1624" x2="1970.2089" y2="1571.6316">
				<stop  offset="0" style="stop-color:#AA80F9"/>
				<stop  offset="0.9964" style="stop-color:#6165D7"/>
			</linearGradient>
			<polygon style="fill:url(#SVGID_00000066516101841628088650000015174460379776701618_);" points="1529.585,1617.078 
				1555.044,1628.904 2419.538,1599.636 2466.028,1581.381 			"/>
			
				<linearGradient id="SVGID_00000155113972943339439430000009157008587769581449_" gradientUnits="userSpaceOnUse" x1="2651.2407" y1="1428.0966" x2="2776.7" y2="1227.3618">
				<stop  offset="0" style="stop-color:#AA80F9"/>
				<stop  offset="0.9964" style="stop-color:#6165D7"/>
			</linearGradient>
			<polygon style="fill:url(#SVGID_00000155113972943339439430000009157008587769581449_);" points="3153.417,1263.969 
				3133.493,1273.638 2419.538,1159.467 2466.028,1132.807 			"/>
			
				<linearGradient id="SVGID_00000093177170650008083600000007817964830465443248_" gradientUnits="userSpaceOnUse" x1="1653.8938" y1="1365.2874" x2="1870.5958" y2="1620.7675">
				<stop  offset="0" style="stop-color:#AA80F9"/>
				<stop  offset="0.9964" style="stop-color:#6165D7"/>
			</linearGradient>
			<polygon style="fill:url(#SVGID_00000093177170650008083600000007817964830465443248_);" points="563.256,1269.427 
				573.218,1275.377 2419.538,1159.467 2466.028,1132.807 			"/>
		</g>
		<path style="fill:#F4F7FA;" d="M3218.839,2090.106c-165.128,667.352-871.074,1192.843-1595.225,1080.716
			c-552.487-85.506-1022.686-527.784-1140.321-1080.716H3218.839z"/>
		<g>
			<g>
				
					<linearGradient id="SVGID_00000003084273692220496480000014271420165089820066_" gradientUnits="userSpaceOnUse" x1="958.0578" y1="2543.3511" x2="1376.6277" y2="2543.3511">
					<stop  offset="0" style="stop-color:#FF9085"/>
					<stop  offset="1" style="stop-color:#FB6FBB"/>
				</linearGradient>
				<path style="fill:url(#SVGID_00000003084273692220496480000014271420165089820066_);" d="M1184.038,2931.839
					c-0.29,0.047-0.58,0.093-0.873,0.14c-47.304,7.552-106.588,2.274-144.899-29.208c-20.186-16.588-33.859-38.467-38.057-64.377
					c-2.49-15.367-3.842-31.584-1.438-47.045c2.517-16.187,8.776-31.822,16.834-46.017c4.5-7.927,9.631-15.583,15.079-22.89
					c15.602-20.933,52.463-50.342,35.371-80.02c-10.332-17.939-34.149-28.986-49.88-41.565
					c-33.626-26.89-57.776-65.66-58.115-109.931c-0.267-34.779,21.539-69.207,46.141-92.59
					c100.113-95.155,26.357-258.804,168.152-245.952s172.557,154.359,119.45,286.478c-17.78,44.232-39.418,89.448-51.495,135.676
					c-9.507,36.391,3.929,61.558,33.565,83.063c15.944,11.57,39.25,19.457,53.1,33.088c30.94,30.45,55.726,73.129,48.34,117.8
					c-7.327,44.31-45.097,76.859-84.903,93.694C1255.988,2916.738,1220.856,2925.942,1184.038,2931.839z"/>
				<g style="opacity:0.8;">
					<path style="fill:#FFFFFF;" d="M1167.342,2893.821c-0.332,0-0.67-0.058-1-0.178c-1.511-0.552-2.289-2.226-1.737-3.737
						c0.599-1.641,59.352-165.681,7.91-297.144c-52.283-133.611,6.201-276.646,6.797-278.076c0.62-1.484,2.325-2.183,3.812-1.566
						c1.486,0.621,2.187,2.327,1.567,3.812c-0.587,1.409-58.155,142.333-6.748,273.707c52.255,133.541-7.256,299.606-7.865,301.267
						C1169.648,2893.088,1168.531,2893.821,1167.342,2893.821z"/>
				</g>
			</g>
			<g>
				
					<linearGradient id="SVGID_00000026153898172171427750000013507670005211998634_" gradientUnits="userSpaceOnUse" x1="588.4626" y1="2438.2661" x2="1255.7164" y2="2438.2661">
					<stop  offset="0" style="stop-color:#FFC444"/>
					<stop  offset="0.9964" style="stop-color:#F36F56"/>
				</linearGradient>
				<path style="fill:url(#SVGID_00000026153898172171427750000013507670005211998634_);" d="M1213.938,2685.443
					c-11.87-18.789-25.454-36.463-39.633-52.45c-47.911-54.019-81.54-111.365-103.06-180.554
					c-16.951-54.5-16.587-116.812-27.105-173.084c-7.622-40.774-21.427-80.237-35.773-119.062
					c-30.546-82.663-76.401-178.57-153.364-228.211c-35.634-22.984-88.471-25.252-127.772-8.787
					c-50.912,21.33-95.929,62.889-99.195,120.676c-4.491,79.466,64.919,168.546,7.516,241.62
					c-87.897,111.891-46.809,236.201,74.031,297.043c39.38,19.828,85.528,38.208,118.431,68.659
					c33.003,30.543,13.331,82.655,9.664,121.342c-3.441,36.304-7.234,78.483,15.901,109.521
					c39.033,52.368,133.286,75.189,194.553,80.363c59.282,5.007,126.644-1.54,168.165-49.004
					C1278.866,2841.992,1258.443,2755.887,1213.938,2685.443z"/>
				<g style="opacity:0.8;">
					<path style="fill:#FFFFFF;" d="M1117.46,2913.25c-1.177,0-2.286-0.718-2.727-1.884
						c-1.924-5.087-193.619-510.974-303.001-714.838c-0.761-1.418-0.228-3.185,1.191-3.946c1.419-0.76,3.185-0.229,3.946,1.191
						c109.562,204.199,301.392,710.441,303.316,715.531c0.57,1.506-0.189,3.188-1.694,3.757
						C1118.151,2913.189,1117.802,2913.25,1117.46,2913.25z"/>
				</g>
			</g>
			<g>
				
					<linearGradient id="SVGID_00000024694816959425885150000008232052192758184334_" gradientUnits="userSpaceOnUse" x1="494.7325" y1="2787.9287" x2="1164.0886" y2="2787.9287">
					<stop  offset="0.0036" style="stop-color:#E38DDD"/>
					<stop  offset="1" style="stop-color:#9571F6"/>
				</linearGradient>
				<path style="fill:url(#SVGID_00000024694816959425885150000008232052192758184334_);" d="M1034.605,2984.805
					c12.757-1.806,25.473-3.901,38.138-5.934c35.394-5.678,79.238-16.703,90.37-56.198c3.17-11.249-2.289-31.328-3.602-43.018
					c-1.337-11.908-3.035-23.812-5.805-35.481c-3.828-16.125-9.962-31.284-17.917-45.795
					c-13.784-25.143-29.541-44.061-58.878-49.756c-21.39-4.152-45.088-5.119-66.827-4.406
					c-118.517,3.886-133.088-38.858-198.175-130.174c-65.087-91.316-493.495,56.344-235.09,218.576c0,0,38.857,25.257,180.687,8.743
					c25.944-3.021,58.753-5.029,80.745,11.749c38.79,29.594-0.214,92.311,38.953,116.918c22.838,14.348,59.543,18.569,85.778,19.577
					C986.957,2990.528,1010.852,2988.168,1034.605,2984.805z"/>
				<g style="opacity:0.8;">
					<path style="fill:#FFFFFF;" d="M1113.708,2935.916c-0.902,0-1.792-0.417-2.362-1.203
						c-0.746-1.027-75.771-103.024-182.212-127.1c-41.635-9.417-77.622-30.491-112.423-50.872
						c-58.683-34.365-114.112-66.826-195.918-50.145c-1.581,0.323-3.116-0.697-3.438-2.273c-0.322-1.578,0.696-3.116,2.273-3.438
						c83.991-17.129,142.982,17.419,200.028,50.827c34.419,20.156,70.01,40.998,110.765,50.217
						c108.617,24.569,184.886,128.317,185.644,129.363c0.945,1.302,0.655,3.125-0.649,4.07
						C1114.899,2935.736,1114.301,2935.916,1113.708,2935.916z"/>
				</g>
			</g>
		</g>
		<g>
			
				<linearGradient id="SVGID_00000034075843125295112450000002938225864503989649_" gradientUnits="userSpaceOnUse" x1="-813.6518" y1="1598.7061" x2="1083.422" y2="-837.7275" gradientTransform="matrix(-1 0 0 1 1919.6808 0)">
				<stop  offset="0" style="stop-color:#AB316D"/>
				<stop  offset="1" style="stop-color:#792D3D"/>
			</linearGradient>
			<path style="fill:url(#SVGID_00000034075843125295112450000002938225864503989649_);" d="M2049.959,774.201l446.934-46.951
				c32.159-3.058,58.285,21.5,58.285,54.858v417.618c0,33.359-26.126,62.357-58.285,64.766l-24.428,1.829v103.205
				c0,15.468-17.976,24.287-32.837,8.206l-92.559-102.019l-297.109,20.324c-28.169,2.108-50.958-21.417-50.958-52.54V835.409
				C1999.001,804.286,2021.789,776.885,2049.959,774.201z"/>
			
				<linearGradient id="SVGID_00000129185132421510139150000009476595030532654490_" gradientUnits="userSpaceOnUse" x1="-630.0742" y1="1370.5811" x2="-288.8004" y2="932.2793" gradientTransform="matrix(-1 0 0 1 1919.6808 0)">
				<stop  offset="0" style="stop-color:#FCB148"/>
				<stop  offset="0.0521" style="stop-color:#FDBA46"/>
				<stop  offset="0.1424" style="stop-color:#FFC244"/>
				<stop  offset="0.3183" style="stop-color:#FFC444"/>
				<stop  offset="0.4849" style="stop-color:#FDB946"/>
				<stop  offset="0.7754" style="stop-color:#F99C4D"/>
				<stop  offset="0.8658" style="stop-color:#F8924F"/>
				<stop  offset="1" style="stop-color:#F8924F"/>
			</linearGradient>
			<path style="fill:url(#SVGID_00000129185132421510139150000009476595030532654490_);" d="M1984.76,824.912v408.336
				c0,31.142,22.683,54.687,50.873,52.601l296.553-20.783l125.281-8.791l25.674-1.802c32.213-2.392,58.491-31.413,58.491-64.797
				V771.831c0-33.385-26.293-57.967-58.506-54.923l-65.313,6.833l-382.14,39.954C2007.481,766.354,1984.76,793.769,1984.76,824.912z
				"/>
			
				<linearGradient id="SVGID_00000173876215251847547350000011947567586038392455_" gradientUnits="userSpaceOnUse" x1="-796.1033" y1="1585.0635" x2="1073.4227" y2="-815.9903" gradientTransform="matrix(-1 0 0 1 1919.6808 0)">
				<stop  offset="0" style="stop-color:#FCB148"/>
				<stop  offset="0.0521" style="stop-color:#FDBA46"/>
				<stop  offset="0.1424" style="stop-color:#FFC244"/>
				<stop  offset="0.3183" style="stop-color:#FFC444"/>
				<stop  offset="0.4849" style="stop-color:#FDB946"/>
				<stop  offset="0.7754" style="stop-color:#F99C4D"/>
				<stop  offset="0.8658" style="stop-color:#F8924F"/>
				<stop  offset="1" style="stop-color:#F8924F"/>
			</linearGradient>
			<path style="fill:url(#SVGID_00000173876215251847547350000011947567586038392455_);" d="M1998.933,813.295v429.129
				c0,16.61,12.061,29.157,27.081,28.051l291.805-21.204l14.305,15.798l97.532,107.669c9.886,10.887,27.78,2.375,27.78-13.112
				v-120.505l35.978-2.61c17.162-1.293,31.968-16.797,31.968-34.568V762.322c0-17.772-14.289-30.858-31.451-29.239l-87.551,8.916
				l-380.225,38.669C2011.135,782.091,1998.933,796.685,1998.933,813.295z"/>
			<g style="opacity:0.8;">
				<g style="opacity:0.3;">
					
						<linearGradient id="SVGID_00000009550324206004384360000009083235216051531405_" gradientUnits="userSpaceOnUse" x1="-565.0264" y1="1007.3928" x2="-127.0439" y2="1007.3928" gradientTransform="matrix(-1 0 0 1 1919.6808 0)">
						<stop  offset="0" style="stop-color:#FFC444"/>
						<stop  offset="0.9964" style="stop-color:#F36F56"/>
					</linearGradient>
					<path style="fill:url(#SVGID_00000009550324206004384360000009083235216051531405_);" d="M2057.732,1051.945l410.237-32.8
						c6.739-0.539,12.8-6.719,13.531-13.821l3.134-30.459c0.742-7.211-4.191-12.598-11.011-12.014l-414.969,35.526
						c-6.25,0.535-11.394,6.527-11.496,13.367l-0.431,28.902C2046.626,1047.388,2051.55,1052.439,2057.732,1051.945z"/>
					
						<linearGradient id="SVGID_00000160871869912945679990000010708530975799429274_" gradientUnits="userSpaceOnUse" x1="-531.1657" y1="1121.4048" x2="-152.6012" y2="1121.4048" gradientTransform="matrix(-1 0 0 1 1919.6808 0)">
						<stop  offset="0" style="stop-color:#FFC444"/>
						<stop  offset="0.9964" style="stop-color:#F36F56"/>
					</linearGradient>
					<path style="fill:url(#SVGID_00000160871869912945679990000010708530975799429274_);" d="M2072.282,1061.543l29.23,136.141
						c1.806,8.402,8.942,13.912,17.33,13.385l263.506-16.526c8.875-0.557,17.177-7.22,20.136-16.194l48.362-146.643
						L2072.282,1061.543z M2347.437,1064.372c0.446-5.816,5.296-10.888,10.835-11.316l9.571-0.741
						c5.557-0.43,9.676,3.962,9.193,9.798l-9.177,111.001c-0.46,5.56-5.217,10.339-10.618,10.684l-9.304,0.595
						c-5.385,0.344-9.405-3.86-8.98-9.401L2347.437,1064.372z M2294.42,1068.418c0.38-5.779,5.129-10.818,10.608-11.242l9.467-0.733
						c5.496-0.425,9.62,3.941,9.203,9.74l-7.921,110.317c-0.397,5.527-5.056,10.275-10.4,10.617l-9.205,0.589
						c-5.328,0.341-9.351-3.839-8.989-9.348L2294.42,1068.418z M2241.977,1072.419c0.317-5.743,4.965-10.749,10.385-11.168
						l9.365-0.724c5.436-0.421,9.564,3.92,9.212,9.683l-6.691,109.641c-0.335,5.494-4.899,10.212-10.187,10.551l-9.108,0.583
						c-5.272,0.338-9.299-3.819-8.998-9.294L2241.977,1072.419z M2190.099,1076.377c0.254-5.707,4.804-10.68,10.166-11.095
						l9.264-0.717c5.378-0.416,9.51,3.899,9.221,9.626l-5.488,108.973c-0.275,5.461-4.745,10.15-9.977,10.485l-9.013,0.577
						c-5.216,0.334-9.247-3.799-9.005-9.242L2190.099,1076.377z M2138.776,1080.293c0.193-5.672,4.647-10.613,9.951-11.023
						l9.164-0.709c5.32-0.412,9.455,3.878,9.229,9.57l-4.31,108.314c-0.216,5.428-4.594,10.089-9.771,10.42l-8.919,0.571
						c-5.162,0.33-9.196-3.78-9.012-9.19L2138.776,1080.293z"/>
					<g>
						<g>
							
								<linearGradient id="SVGID_00000106829567717210484930000001824050906616267402_" gradientUnits="userSpaceOnUse" x1="-518.7462" y1="939.4307" x2="-487.9319" y2="939.4307" gradientTransform="matrix(-1 0 0 1 1919.6808 0)">
								<stop  offset="0" style="stop-color:#FFC444"/>
								<stop  offset="0.9964" style="stop-color:#F36F56"/>
							</linearGradient>
							<path style="fill:url(#SVGID_00000106829567717210484930000001824050906616267402_);" d="M2411.841,952.715
								c5.832,5.366,15.55,3.822,21.731-3.468c6.205-7.319,6.507-17.66,0.645-23.078c-5.868-5.424-15.654-3.829-21.83,3.542
								C2406.235,937.053,2406.002,947.343,2411.841,952.715z"/>
							
								<linearGradient id="SVGID_00000093176156881777667050000009266400340538265015_" gradientUnits="userSpaceOnUse" x1="-504.8034" y1="876.7297" x2="-365.96" y2="876.7297" gradientTransform="matrix(-1 0 0 1 1919.6808 0)">
								<stop  offset="0" style="stop-color:#FFC444"/>
								<stop  offset="0.9964" style="stop-color:#F36F56"/>
							</linearGradient>
							<path style="fill:url(#SVGID_00000093176156881777667050000009266400340538265015_);" d="M2287.023,814.105
								c2.321-2.97,6.748-3.034,9.884-0.139l124.874,115.259c3.063,2.827,3.602,7.424,1.209,10.263
								c-2.39,2.835-6.802,2.848-9.859,0.031L2288.5,824.695C2285.369,821.811,2284.707,817.071,2287.023,814.105z"/>
						</g>
						<g>
							
								<linearGradient id="SVGID_00000181800869856877696590000014377330424342475415_" gradientUnits="userSpaceOnUse" x1="-203.3876" y1="967.231" x2="-174.6338" y2="967.231" gradientTransform="matrix(-1 0 0 1 1919.6808 0)">
								<stop  offset="0" style="stop-color:#FFC444"/>
								<stop  offset="0.9964" style="stop-color:#F36F56"/>
							</linearGradient>
							<path style="fill:url(#SVGID_00000181800869856877696590000014377330424342475415_);" d="M2117.772,978.353
								c-6.135,6.226-15.16,6.328-20.184,0.24c-5.031-6.098-4.171-16.125,1.949-22.408c6.143-6.306,15.235-6.437,20.282-0.282
								C2124.858,962.048,2123.93,972.105,2117.772,978.353z"/>
							
								<linearGradient id="SVGID_00000047023828068631347210000005287294983509366437_" gradientUnits="userSpaceOnUse" x1="-336.8594" y1="892.278" x2="-187.9979" y2="892.278" gradientTransform="matrix(-1 0 0 1 1919.6808 0)">
								<stop  offset="0" style="stop-color:#FFC444"/>
								<stop  offset="0.9964" style="stop-color:#F36F56"/>
							</linearGradient>
							<path style="fill:url(#SVGID_00000047023828068631347210000005287294983509366437_);" d="M2255.587,817.332
								c-1.987-2.518-6.423-1.672-9.902,1.887l-134.731,137.822c-3.215,3.289-4.236,7.874-2.287,10.244
								c1.948,2.369,6.132,1.635,9.35-1.642l134.855-137.331C2256.354,824.766,2257.573,819.848,2255.587,817.332z"/>
						</g>
					</g>
				</g>
				<g>
					<path style="fill:#FFFFFF;" d="M2051.687,1046.301l410.824-32.703c6.749-0.537,12.814-6.726,13.541-13.84l3.117-30.513
						c0.738-7.223-4.206-12.622-11.036-12.04l-415.563,35.432c-6.26,0.534-11.407,6.535-11.504,13.387l-0.41,28.955
						C2040.56,1041.731,2045.495,1046.793,2051.687,1046.301z"/>
					<path style="fill:#FFFFFF;" d="M2066.266,1055.922l29.376,136.396c1.815,8.418,8.966,13.94,17.366,13.416l263.88-16.458
						c8.888-0.554,17.198-7.226,20.154-16.215l48.329-146.885L2066.266,1055.922z M2341.833,1058.861
						c0.442-5.826,5.296-10.905,10.843-11.332l9.585-0.738c5.565-0.429,9.693,3.973,9.214,9.819l-9.111,111.195
						c-0.457,5.57-5.217,10.355-10.626,10.7l-9.317,0.593c-5.393,0.343-9.421-3.87-9-9.421L2341.833,1058.861z M2288.741,1062.893
						c0.377-5.789,5.128-10.835,10.615-11.258l9.48-0.73c5.504-0.424,9.637,3.951,9.224,9.761l-7.853,110.51
						c-0.394,5.536-5.056,10.292-10.408,10.632l-9.219,0.586c-5.335,0.339-9.368-3.849-9.009-9.367L2288.741,1062.893z
						 M2236.224,1066.882c0.313-5.753,4.964-10.766,10.392-11.184l9.378-0.722c5.444-0.419,9.581,3.93,9.233,9.703l-6.622,109.834
						c-0.332,5.503-4.899,10.229-10.194,10.566l-9.121,0.58c-5.279,0.336-9.316-3.829-9.017-9.314L2236.224,1066.882z
						 M2184.271,1070.828c0.25-5.718,4.803-10.698,10.173-11.111l9.277-0.714c5.386-0.415,9.527,3.909,9.242,9.647l-5.416,109.166
						c-0.271,5.47-4.744,10.167-9.984,10.5l-9.025,0.574c-5.224,0.333-9.264-3.809-9.025-9.261L2184.271,1070.828z
						 M2132.875,1074.732c0.188-5.682,4.646-10.63,9.958-11.04l9.177-0.707c5.328-0.411,9.472,3.889,9.25,9.59l-4.236,108.505
						c-0.212,5.438-4.593,10.105-9.778,10.435l-8.932,0.568c-5.169,0.329-9.212-3.789-9.032-9.21L2132.875,1074.732z"/>
					<g>
						<g>
							<path style="fill:#FFFFFF;" d="M2406.253,947.027c5.845,5.378,15.576,3.835,21.761-3.466c6.209-7.33,6.504-17.69,0.63-23.12
								c-5.88-5.436-15.68-3.842-21.86,3.54C2400.627,931.334,2400.402,941.643,2406.253,947.027z"/>
							<path style="fill:#FFFFFF;" d="M2281.15,808.113c2.322-2.975,6.756-3.037,9.899-0.135l125.142,115.521
								c3.07,2.833,3.613,7.438,1.218,10.282c-2.391,2.839-6.81,2.85-9.874,0.027l-124.9-115.085
								C2279.499,815.832,2278.832,811.083,2281.15,808.113z"/>
						</g>
						<g>
							<path style="fill:#FFFFFF;" d="M2111.762,972.598c-6.14,6.235-15.179,6.334-20.215,0.233
								c-5.044-6.111-4.189-16.156,1.936-22.449c6.147-6.315,15.253-6.443,20.313-0.275
								C2118.847,956.266,2117.925,966.341,2111.762,972.598z"/>
							<path style="fill:#FFFFFF;" d="M2249.668,811.333c-1.992-2.524-6.434-1.677-9.916,1.886l-134.834,138.025
								c-3.218,3.294-4.237,7.886-2.282,10.262c1.953,2.374,6.143,1.641,9.363-1.641l134.958-137.532
								C2250.442,818.781,2251.658,813.854,2249.668,811.333z"/>
						</g>
					</g>
				</g>
			</g>
			
				<linearGradient id="SVGID_00000026136215558210427340000010956665500912884125_" gradientUnits="userSpaceOnUse" x1="-621.9495" y1="1047.1466" x2="-65.0789" y2="1047.1466" gradientTransform="matrix(-1 0 0 1 1919.6808 0)">
				<stop  offset="0" style="stop-color:#FCB148"/>
				<stop  offset="0.0521" style="stop-color:#FDBA46"/>
				<stop  offset="0.1424" style="stop-color:#FFC244"/>
				<stop  offset="0.3183" style="stop-color:#FFC444"/>
				<stop  offset="0.4849" style="stop-color:#FDB946"/>
				<stop  offset="0.7754" style="stop-color:#F99C4D"/>
				<stop  offset="0.8658" style="stop-color:#F8924F"/>
				<stop  offset="1" style="stop-color:#F8924F"/>
			</linearGradient>
			<path style="opacity:0.2;fill:url(#SVGID_00000026136215558210427340000010956665500912884125_);" d="M1984.76,1170.823v62.426
				c0,31.142,22.683,54.687,50.873,52.601l296.553-20.783l97.501,107.671c9.886,10.887,27.749,2.377,27.749-13.109v-103.35
				l25.689-1.803c32.213-2.392,58.506-31.414,58.506-64.798V771.831c0-33.385-26.293-57.967-58.506-54.923l-65.313,6.833
				c-4.02,5.769-7.863,11.866-11.394,18.257c-12.05,21.678-21.034,46.864-23.584,75.541
				c-10.181,114.877-130.221,44.164-196.969,213.142c-35.948,91-123.283,105.423-186.799,133.304
				C1994.078,1166.152,1990.431,1168.356,1984.76,1170.823z"/>
		</g>
		<g>
			
				<linearGradient id="SVGID_00000029040945951742276850000008939492630316300717_" gradientUnits="userSpaceOnUse" x1="3854.7944" y1="-495.8492" x2="4019.085" y2="-495.8492" gradientTransform="matrix(0.7588 0.6514 -0.6514 0.7588 -590.8102 -734.4166)">
				<stop  offset="0" style="stop-color:#311944"/>
				<stop  offset="1" style="stop-color:#6B3976"/>
			</linearGradient>
			<path style="fill:url(#SVGID_00000029040945951742276850000008939492630316300717_);" d="M2711.389,1517.956
				c8.254,2.035,22.354,4.333,38.831,0.702c17.645-3.89,43.058-15.688,43.107-29.623c0.023-6.68-5.803-8.984-13.862-18.699
				c-16.776-20.219-12.669-35.703-21.448-51.045c-19.281-33.696-85.789-40.616-96.221-24.133
				c-4.343,6.865,1.03,17.795,10.939,37.945c10.153,20.651,17.359,25.351,25.93,42.656
				C2703.127,1484.77,2708.709,1498.709,2711.389,1517.956z"/>
			
				<linearGradient id="SVGID_00000036232365576706594220000015021431262415297446_" gradientUnits="userSpaceOnUse" x1="3064.345" y1="2864.5105" x2="3342.1028" y2="3126.7224" gradientTransform="matrix(0.9873 -0.1586 0.1586 0.9873 -605.1399 205.6246)">
				<stop  offset="0" style="stop-color:#AB316D"/>
				<stop  offset="1" style="stop-color:#792D3D"/>
			</linearGradient>
			<path style="fill:url(#SVGID_00000036232365576706594220000015021431262415297446_);" d="M3065.964,2657.272l3.557-6.169
				c0,0,6.385-3.825,9.404,4.088c3.021,7.912,20.157,49.244,21.069,67.991c-4.495,11.218-17.218,1.716-19.842-5.909
				c-2.625-7.626-11.717-35.906-11.717-35.906L3065.964,2657.272z"/>
			
				<linearGradient id="SVGID_00000155861238848539431750000002862670959879272610_" gradientUnits="userSpaceOnUse" x1="2958.9065" y1="2478.2866" x2="3234.033" y2="2370.9873" gradientTransform="matrix(1 0 0 1 -374.42 0)">
				<stop  offset="0" style="stop-color:#40447E"/>
				<stop  offset="0.9964" style="stop-color:#3C3B6B"/>
			</linearGradient>
			<path style="fill:url(#SVGID_00000155861238848539431750000002862670959879272610_);" d="M3025.509,2686.775
				c5.314-0.078,10.599-0.04,15.946-0.28c9.749-0.436,19.549-1.137,29.386-2.116c-1.644-10.233-3.287-20.466-4.931-30.698
				c-5.018-1.917-9.919-3.839-14.715-5.768c-2.448-0.986-4.793-1.979-7.184-2.967c-2.256-0.932-4.561-1.861-6.767-2.797
				c-3.245-1.377-6.379-2.759-9.516-4.141c-1.247-0.549-2.542-1.095-3.773-1.645c-3.683-1.647-7.259-3.299-10.794-4.951
				c-0.596-0.279-1.221-0.557-1.813-0.834c-3.826-1.804-7.551-3.61-11.206-5.42c-0.265-0.132-0.545-0.261-0.81-0.394
				c-3.848-1.913-7.601-3.829-11.264-5.747c-0.05-0.027-0.103-0.052-0.154-0.079c-7.452-3.907-14.522-7.825-21.233-11.746l0,0
				c-83.171-48.605-110.672-97.954-119.146-136.759c-23.842-109.179,92.897-179.287,62.743-297.682
				c-22.722-89.219-118.633-165.613-177.691-147.797c-66.698,20.12-77.148,149.396-83.58,228.954
				c-7.241,89.577-15.309,189.371,41.981,278.759c54.249,84.646,152.253,136.735,265.027,150.597c0,0.006-0.001,0.011-0.001,0.018
				c2.682,0.329,5.429,0.479,8.127,0.764c6.539,0.693,13.068,1.417,19.696,1.854c3.031,0.2,6.117,0.212,9.165,0.359
				c6.462,0.311,12.909,0.667,19.437,0.734C3016.77,2687.039,3021.155,2686.837,3025.509,2686.775z"/>
			
				<linearGradient id="SVGID_00000006708796916649482420000003480633182500654264_" gradientUnits="userSpaceOnUse" x1="2958.9065" y1="2478.2866" x2="3234.033" y2="2370.9873" gradientTransform="matrix(1 0 0 1 -374.42 0)">
				<stop  offset="0" style="stop-color:#40447E"/>
				<stop  offset="0.9964" style="stop-color:#3C3B6B"/>
			</linearGradient>
			<path style="opacity:0.25;fill:url(#SVGID_00000006708796916649482420000003480633182500654264_);" d="M3025.509,2686.775
				c5.314-0.078,10.599-0.04,15.946-0.28c9.749-0.436,19.549-1.137,29.386-2.116c-1.644-10.233-3.287-20.466-4.931-30.698
				c-5.018-1.917-9.919-3.839-14.715-5.768c-2.448-0.986-4.793-1.979-7.184-2.967c-2.256-0.932-4.561-1.861-6.767-2.797
				c-3.245-1.377-6.379-2.759-9.516-4.141c-1.247-0.549-2.542-1.095-3.773-1.645c-3.683-1.647-7.259-3.299-10.794-4.951
				c-0.596-0.279-1.221-0.557-1.813-0.834c-3.826-1.804-7.551-3.61-11.206-5.42c-0.265-0.132-0.545-0.261-0.81-0.394
				c-3.848-1.913-7.601-3.829-11.264-5.747c-0.05-0.027-0.103-0.052-0.154-0.079c-7.452-3.907-14.522-7.825-21.233-11.746l0,0
				c-83.171-48.605-110.672-97.954-119.146-136.759c-23.842-109.179,92.897-179.287,62.743-297.682
				c-22.722-89.219-118.633-165.613-177.691-147.797c-66.698,20.12-77.148,149.396-83.58,228.954
				c-7.241,89.577-15.309,189.371,41.981,278.759c54.249,84.646,152.253,136.735,265.027,150.597c0,0.006-0.001,0.011-0.001,0.018
				c2.682,0.329,5.429,0.479,8.127,0.764c6.539,0.693,13.068,1.417,19.696,1.854c3.031,0.2,6.117,0.212,9.165,0.359
				c6.462,0.311,12.909,0.667,19.437,0.734C3016.77,2687.039,3021.155,2686.837,3025.509,2686.775z"/>
			
				<linearGradient id="SVGID_00000100356427191085522470000004652283485647411377_" gradientUnits="userSpaceOnUse" x1="2792.5518" y1="1676.9623" x2="3021.9529" y2="1895.007" gradientTransform="matrix(1 0 0 1 -374.42 0)">
				<stop  offset="0" style="stop-color:#FFC444"/>
				<stop  offset="0.9964" style="stop-color:#F36F56"/>
			</linearGradient>
			<path style="fill:url(#SVGID_00000100356427191085522470000004652283485647411377_);" d="M2482.387,2052.167
				c-12.75-20.23,46.704-50.075,66.031-133.093c16.319-70.092-16.978-87.849,1.187-181.685
				c10.117-52.262,27.387-82.611,47.516-104.643c16.588-18.159,38.139-41.749,57.565-38.665
				c60.912,9.672,133.063,286.724,11.349,407.531C2603.493,2063.689,2497.766,2076.567,2482.387,2052.167z"/>
			<g>
				
					<linearGradient id="SVGID_00000142136374427375966470000003035292074232502151_" gradientUnits="userSpaceOnUse" x1="2641.998" y1="3235.8623" x2="2634.6072" y2="3600.8611" gradientTransform="matrix(0.9832 -0.1825 0.1825 0.9832 -441.0394 160.6767)">
					<stop  offset="0" style="stop-color:#AB316D"/>
					<stop  offset="1" style="stop-color:#792D3D"/>
				</linearGradient>
				<path style="fill:url(#SVGID_00000142136374427375966470000003035292074232502151_);" d="M2802.109,2929.381
					c-2.769-6.389-18.016,9.667-32.219,26.623c1.829,24.404,3.66,48.808,5.489,73.213c-5.043-3.206-11.402-6.709-18.574-8.365
					c-8.62-1.987-23.519,1.116-24.664,5.237c-7.064,25.433,56.357,30.985,63.307,22.995c6.95-7.992,5.361-17.342,5.361-17.342
					c-6.437-36.648-5.585-61.469-2.534-78.607C2800.419,2941.098,2803.638,2932.908,2802.109,2929.381z"/>
				
					<linearGradient id="SVGID_00000036943915308081644440000004426055697331746735_" gradientUnits="userSpaceOnUse" x1="2724.916" y1="2628.2747" x2="2836.8413" y2="3007.5771" gradientTransform="matrix(0.9832 -0.1825 0.1825 0.9832 -441.0394 160.6767)">
					<stop  offset="0" style="stop-color:#40447E"/>
					<stop  offset="0.9964" style="stop-color:#3C3B6B"/>
				</linearGradient>
				<path style="fill:url(#SVGID_00000036943915308081644440000004426055697331746735_);" d="M2964.588,2110.902
					c-36.192-53.359-71.47-107.336-106.837-161.243c-6.948-10.592-10.976-22.88-12.914-35.782
					c-14.043,11.147-27.493,24.489-39.888,40.1c-9.958,49.932-25.339,124.992-45.63,215.966
					c-51.561,231.178-73.264,289.071-84.2,361.789c-16.827,111.878-10.863,276.731,100.26,497.486
					c8.477,0.842,16.952,1.683,25.429,2.525c17.862-188.827,38.349-359.253,48.687-446.837
					c3.509-29.717,13.861-118.862,61.59-190.666c0.768-1.156,71.393-97.732,95.762-136.317c8.113-12.846,18.262-29.51,29.798-51.795
					C3009.28,2177.37,2987.353,2144.461,2964.588,2110.902z"/>
				
					<linearGradient id="SVGID_00000175304563447098793220000017545607626861492145_" gradientUnits="userSpaceOnUse" x1="3173.1086" y1="2183.4246" x2="3287.6926" y2="2571.7366" gradientTransform="matrix(1 0 0 1 -374.42 0)">
					<stop  offset="0" style="stop-color:#40447E"/>
					<stop  offset="0.9964" style="stop-color:#3C3B6B"/>
				</linearGradient>
				<path style="opacity:0.25;fill:url(#SVGID_00000175304563447098793220000017545607626861492145_);" d="M2964.588,2110.902
					c-36.191-53.359-71.471-107.335-106.837-161.244c-6.947-10.592-10.976-22.879-12.914-35.782
					c-14.043,11.148-27.493,24.49-39.888,40.103c-15.786,61.047-27.037,113.267-34.914,153.195
					c-21.852,110.749-20.609,141.38-4.955,168.878c21.519,37.803,46.298,27.578,62.022,60.479
					c27.566,57.684-46.251,97.096-45.573,208.331c0.377,61.679,22.431,77.161,12.391,133.776
					c-2.592,14.615-9.939,46.722-6.693,90.83c1.425,19.37,2.987,15.155,4.174,32.657c3.38,49.863-8.514,95.704-3.36,126.845
					c1.853,11.193,5.66,18.998,7.139,21.84c3.968,7.626,8.62,13.09,11.891,16.48c16.187-162.55,33.278-304.896,42.424-382.385
					c3.509-29.715,13.861-118.861,61.59-190.666c0.768-1.156,71.393-97.733,95.762-136.319
					c8.113-12.844,18.262-29.508,29.798-51.793C3009.28,2177.37,2987.352,2144.46,2964.588,2110.902z"/>
			</g>
			
				<linearGradient id="SVGID_00000139289778846946295530000009942472701460334992_" gradientUnits="userSpaceOnUse" x1="3238.7502" y1="1791.9658" x2="3869.9668" y2="2191.9441" gradientTransform="matrix(0.9995 -0.0302 0.0302 0.9995 -609.7557 118.8563)">
				<stop  offset="0" style="stop-color:#FFC444"/>
				<stop  offset="0.9964" style="stop-color:#F36F56"/>
			</linearGradient>
			<path style="fill:url(#SVGID_00000139289778846946295530000009942472701460334992_);" d="M2594.02,1640.617
				c-22.752,41.719-20.16,83.269-17.67,101.454c7.493,54.696,39.448,91.148,50.176,104.93
				c35.972,46.213,64.026,137.623,19.374,337.998c25.053-4.021,66.282-7.881,114.323,2.133
				c122.188,25.47,170.965,116.203,229.586,99.664c21.644-6.105,51.036-28.642,71.533-112.801
				c17.913-43.761,73.732-195.606,16.508-374.173c-40.929-127.719-119.659-206.609-158.659-240.922
				c-33.529-11.293-138.219-41.812-237.828,6.423C2656.542,1577.343,2617.986,1596.675,2594.02,1640.617z"/>
			
				<linearGradient id="SVGID_00000142136141500653854090000011193697655373014959_" gradientUnits="userSpaceOnUse" x1="-940.0294" y1="2550.7192" x2="-928.4037" y2="2241.0481" gradientTransform="matrix(-0.9261 0.3773 0.3773 0.9261 941.1569 -288.2454)">
				<stop  offset="0" style="stop-color:#311944"/>
				<stop  offset="1" style="stop-color:#893976"/>
			</linearGradient>
			<path style="fill:url(#SVGID_00000142136141500653854090000011193697655373014959_);" d="M2724.874,1479.018
				c-0.031,8.815,0.309,56.016,21.281,63.766c4.584,1.694,8.266,0.614,28.602,1.144c11.593,0.303,21.025,0.923,27.099,1.39
				c-1.031,8.042-3.056,18.829-7.366,30.957c-26.097,73.432-110.568,124.45-139.185,106.073
				c-14.904-9.57-16.052-38.278-16.53-50.189c-0.716-17.892,3.598-32.066,6.747-40.181c10.476-7.61,21.195-15.24,32.158-22.869
				c7.161-4.985,14.283-9.872,21.364-14.663c-0.478-9.033-0.957-18.063-1.435-27.096
				C2706.698,1511.239,2715.786,1495.128,2724.874,1479.018z"/>
			
				<linearGradient id="SVGID_00000016758689332641768460000008359826237290646194_" gradientUnits="userSpaceOnUse" x1="-1712.0107" y1="323.7605" x2="-1718.235" y2="146.3743" gradientTransform="matrix(-0.8767 -0.4811 -0.4811 0.8767 1261.2664 547.8022)">
				<stop  offset="0" style="stop-color:#311944"/>
				<stop  offset="1" style="stop-color:#A03976"/>
			</linearGradient>
			<path style="fill:url(#SVGID_00000016758689332641768460000008359826237290646194_);" d="M2732.459,1510.68
				c0,0-25.227,29.54-56.99,18.924c-28.44-9.504-13.61-82.697,8.499-91.601c7.377-2.969,21.092-2.119,30.394,3.34
				c6.54,3.839,30.164,23.874,20.969,48.058c6.993-4.137,14.185-4.537,18.295-1.083c0.656,0.55,2.288,2.426,2.865,4.769
				C2758.586,1501.565,2749.324,1509.248,2732.459,1510.68z"/>
			
				<linearGradient id="SVGID_00000148639763665362135490000009026105678558309549_" gradientUnits="userSpaceOnUse" x1="3220.3279" y1="1792.0033" x2="3868.4136" y2="2202.6709" gradientTransform="matrix(0.9995 -0.0302 0.0302 0.9995 -609.7557 118.8563)">
				<stop  offset="0" style="stop-color:#FFC444"/>
				<stop  offset="0.9964" style="stop-color:#F36F56"/>
			</linearGradient>
			<path style="opacity:0.3;fill:url(#SVGID_00000148639763665362135490000009026105678558309549_);" d="M3073.91,1803.522
				c-32.022-99.924-87.116-169.826-128.286-212.01c-47.198,31.197-95.216,73.471-91.206,118.799
				c4.563,51.58,73.469,72.895,67.035,105.512c-9.328,47.278-159.426,29.369-176.943,81.398
				c-20.641,61.312,157.334,176.628,147.817,189.683c-6.809,9.339-88.668-56.648-181.584-41.269
				c-18.025,2.982-34.177,10.011-48.566,19.271c-3.308,35.839-9.739,76.784-20.216,123.794c25.053-4.02,66.282-7.88,114.323,2.133
				c122.188,25.47,170.965,116.203,229.586,99.664c21.644-6.105,51.036-28.642,71.533-112.801
				C3075.315,2133.934,3131.134,1982.089,3073.91,1803.522z"/>
			
				<linearGradient id="SVGID_00000030476802880365021550000008112476967343196835_" gradientUnits="userSpaceOnUse" x1="3212.6643" y1="1743.6072" x2="3546.5188" y2="1955.1582" gradientTransform="matrix(1 0 0 1 -374.42 0)">
				<stop  offset="0" style="stop-color:#FFC444"/>
				<stop  offset="0.9964" style="stop-color:#F36F56"/>
			</linearGradient>
			<path style="fill:url(#SVGID_00000030476802880365021550000008112476967343196835_);" d="M2848.804,1566.123
				c28.366-7.068,28.51-16.293,66.446-3.522c108.938,36.671,224.261,201.075,164.661,317.168
				c-33.15,64.571-112.582,122.794-200.155,109.363c-71.288-10.934-113.161-64.016-123.807-78.412
				c-4.127-16.507-8.253-33.015-12.38-49.522c46.458,26.337,79.179,26.329,101.108,20.634c37.328-9.692,45.617-36.44,107.3-59.839
				c24.03-9.117,38.467-11.011,39.205-18.571c1.526-15.633-58.892-20.848-96.982-53.65
				C2866.433,1725.86,2838.731,1677.123,2848.804,1566.123z"/>
			
				<linearGradient id="SVGID_00000031205110415449256740000014331593200130754720_" gradientUnits="userSpaceOnUse" x1="3012.7051" y1="1863.384" x2="3204.7776" y2="1863.384" gradientTransform="matrix(1 0 0 1 -374.42 0)">
				<stop  offset="0" style="stop-color:#311944"/>
				<stop  offset="1" style="stop-color:#A03976"/>
			</linearGradient>
			<path style="fill:url(#SVGID_00000031205110415449256740000014331593200130754720_);" d="M2745.052,1867.127l-16.523-4.77
				c0,0-21.135-14.808-34.726-20.774c-5.306-2.33-10.189-3.488-15.629-3.342v-0.034c0,0-48.953-20.284-38.4-8.532
				c10.55,11.752,22.77,18.117,22.77,18.117s-0.046,0.372-0.454,1.021c-0.202,0.284-0.305,0.496-0.505,0.794
				c-1.231,1.835-1.871,3.653-2.208,5.455c-2.97,9.28-2.405,25.167,30.015,33.827l0.006-0.052c7.799,2.05,17.592,2.206,26.082,1.754
				c8.858-0.469,37.976,10.164,37.976,10.164L2745.052,1867.127z"/>
			<g>
				<g>
					<path style="fill:#CBD0D8;" d="M1878.318,2226.873c-0.508,0-1.024-0.114-1.51-0.352c-1.696-0.835-2.392-2.887-1.557-4.581
						c0.363-0.735,35.979-73.837,15.155-100.864c-7.261-9.423-21.191-12.123-41.407-8.026c-27.01,5.473-45.38,17.229-54.599,34.94
						c-15.918,30.581,0.633,69.331,0.802,69.719c0.755,1.732-0.037,3.749-1.768,4.504c-1.731,0.757-3.746-0.032-4.502-1.763
						c-0.745-1.702-18.037-42.068-0.621-75.583c10.215-19.656,30.175-32.617,59.328-38.523c22.987-4.658,39.203-1.106,48.19,10.559
						c23.408,30.388-12.883,104.906-14.44,108.063C1880.793,2226.173,1879.58,2226.873,1878.318,2226.873z"/>
				</g>
				<g>
					<g>
						
							<linearGradient id="SVGID_00000153678656154421212290000002622550810336474506_" gradientUnits="userSpaceOnUse" x1="3639.0112" y1="3018.2397" x2="3660.1716" y2="3036.0337" gradientTransform="matrix(1 0 0 1 -2283.7361 0)">
							<stop  offset="0" style="stop-color:#AA80F9"/>
							<stop  offset="0.9964" style="stop-color:#6165D7"/>
						</linearGradient>
						<path style="fill:url(#SVGID_00000153678656154421212290000002622550810336474506_);" d="M1434.839,3052.983
							c0,27.787-17.124,50.313-38.248,50.313c-21.123,0-38.247-22.526-38.247-50.313c0-27.787,17.124-50.313,38.247-50.313
							C1417.715,3002.67,1434.839,3025.196,1434.839,3052.983z"/>
						
							<linearGradient id="SVGID_00000063613238281369330250000015142526414731571352_" gradientUnits="userSpaceOnUse" x1="3652.7346" y1="3058.6631" x2="3729.2295" y2="3058.6631" gradientTransform="matrix(1 0 0 1 -2283.7361 0)">
							<stop  offset="0" style="stop-color:#AA80F9"/>
							<stop  offset="0.9964" style="stop-color:#6165D7"/>
						</linearGradient>
						<path style="fill:url(#SVGID_00000063613238281369330250000015142526414731571352_);" d="M1445.493,3058.663
							c0,27.787-17.124,50.313-38.247,50.313c-21.124,0-38.248-22.526-38.248-50.313c0-27.788,17.124-50.313,38.248-50.313
							C1428.37,3008.35,1445.493,3030.875,1445.493,3058.663z"/>
						
							<linearGradient id="SVGID_00000130630123053559458610000016199992044633350318_" gradientUnits="userSpaceOnUse" x1="3674.9519" y1="3059.6758" x2="3707.0049" y2="3059.6758" gradientTransform="matrix(1 0 0 1 -2283.7361 0)">
							<stop  offset="0" style="stop-color:#40447E"/>
							<stop  offset="0.9964" style="stop-color:#3C3B6B"/>
						</linearGradient>
						<path style="fill:url(#SVGID_00000130630123053559458610000016199992044633350318_);" d="M1423.269,3059.676
							c0,11.643-7.175,21.082-16.026,21.082c-8.851,0-16.026-9.439-16.026-21.082c0-11.644,7.176-21.083,16.026-21.083
							C1416.094,3038.594,1423.269,3048.032,1423.269,3059.676z"/>
					</g>
					<path style="fill:#CBD0D8;" d="M1396.591,2997.251v55.247c0,8.112,6.576,14.688,14.688,14.688l0,0
						c4.689,0,9.096-2.24,11.861-6.026l49.687-68.038L1396.591,2997.251z"/>
				</g>
				<g>
					<g>
						
							<linearGradient id="SVGID_00000086668503233802552960000003036468203632472220_" gradientUnits="userSpaceOnUse" x1="4048.4968" y1="2974.1213" x2="4069.6572" y2="2991.9153" gradientTransform="matrix(1 0 0 1 -2283.7361 0)">
							<stop  offset="0" style="stop-color:#AA80F9"/>
							<stop  offset="0.9964" style="stop-color:#6165D7"/>
						</linearGradient>
						<path style="fill:url(#SVGID_00000086668503233802552960000003036468203632472220_);" d="M1844.324,3008.864
							c0,27.788-17.125,50.313-38.248,50.313c-21.123,0-38.247-22.525-38.247-50.313c0-27.787,17.124-50.313,38.247-50.313
							C1827.2,2958.551,1844.324,2981.077,1844.324,3008.864z"/>
						
							<linearGradient id="SVGID_00000106863860826690870400000017098886539625257366_" gradientUnits="userSpaceOnUse" x1="4062.2202" y1="3014.5442" x2="4138.7153" y2="3014.5442" gradientTransform="matrix(1 0 0 1 -2283.7361 0)">
							<stop  offset="0" style="stop-color:#AA80F9"/>
							<stop  offset="0.9964" style="stop-color:#6165D7"/>
						</linearGradient>
						<path style="fill:url(#SVGID_00000106863860826690870400000017098886539625257366_);" d="M1854.979,3014.544
							c0,27.788-17.124,50.313-38.248,50.313c-21.123,0-38.247-22.525-38.247-50.313c0-27.787,17.124-50.313,38.247-50.313
							C1837.855,2964.231,1854.979,2986.758,1854.979,3014.544z"/>
						
							<linearGradient id="SVGID_00000156557408348055934360000012447495374000513933_" gradientUnits="userSpaceOnUse" x1="4084.4375" y1="3015.5574" x2="4116.4902" y2="3015.5574" gradientTransform="matrix(1 0 0 1 -2283.7361 0)">
							<stop  offset="0" style="stop-color:#40447E"/>
							<stop  offset="0.9964" style="stop-color:#3C3B6B"/>
						</linearGradient>
						
							<ellipse style="fill:url(#SVGID_00000156557408348055934360000012447495374000513933_);" cx="1816.728" cy="3015.557" rx="16.026" ry="21.082"/>
					</g>
					<path style="fill:#CBD0D8;" d="M1806.077,2953.132v55.247c0,8.112,6.576,14.688,14.688,14.688l0,0
						c4.689,0,9.096-2.239,11.861-6.025l50.695-74.173L1806.077,2953.132z"/>
				</g>
				<g>
					<path style="fill:#BFC8D6;" d="M1390.886,3001.913c-3.064,0-5.705-2.302-6.057-5.42c-0.378-3.35,2.033-6.373,5.383-6.75
						l484.929-54.649c28.12-4.83,51.357-26.008,58.85-53.904l203.138-756.287c10.385-38.65,44.185-66.466,84.108-69.212
						l158.096-10.921c3.368-0.182,6.259,2.362,6.456,5.73c0.203,3.365-2.367,6.257-5.729,6.458l-158.042,10.916
						c-34.665,2.386-64.066,26.579-73.098,60.198l-203.138,756.286c-8.727,32.482-35.78,57.139-68.925,62.819l-485.281,54.698
						C1391.345,3001.901,1391.116,3001.913,1390.886,3001.913z"/>
				</g>
				<g>
					<path style="fill:#BFC8D6;" d="M1728.255,2704.195c-2.653,0-5.097-1.747-5.866-4.429L1608.2,2300.188
						c-0.924-3.241,0.954-6.62,4.197-7.546c3.213-0.918,6.617,0.943,7.547,4.192l114.189,399.577
						c0.924,3.241-0.954,6.62-4.197,7.545C1729.376,2704.118,1728.816,2704.195,1728.255,2704.195z"/>
				</g>
				<g>
					<path style="fill:#C2C2C2;" d="M1845.085,2687.491c-2.903,0-5.479-2.079-6.003-5.036l-70.439-395.812
						c-0.59-3.32,1.621-6.489,4.942-7.081c3.315-0.596,6.486,1.626,7.076,4.94l70.439,395.812c0.59,3.321-1.621,6.489-4.942,7.081
						C1845.801,2687.46,1845.437,2687.491,1845.085,2687.491z"/>
				</g>
				<g>
					<path style="fill:#C2C2C2;" d="M1917.664,2674.515c-0.089,0-0.173-0.001-0.256-0.006c-3.374-0.138-5.991-2.984-5.848-6.352
						l16.251-391.624c0.143-3.371,3.225-6.02,6.349-5.845c3.374,0.139,5.991,2.984,5.848,6.352l-16.25,391.625
						C1923.62,2671.945,1920.919,2674.515,1917.664,2674.515z"/>
				</g>
				<g>
					<path style="fill:#BFC8D6;" d="M1568.915,2718.816c-2.551,0-4.93-1.613-5.788-4.166l-134.076-399.756
						c-1.07-3.195,0.65-6.656,3.848-7.728c3.204-1.071,6.653,0.65,7.729,3.847l134.076,399.756c1.073,3.195-0.65,6.656-3.845,7.727
						C1570.215,2718.713,1569.559,2718.816,1568.915,2718.816z"/>
				</g>
				<g>
					
						<linearGradient id="SVGID_00000132086137442160277440000001420537001922332822_" gradientUnits="userSpaceOnUse" x1="4657.4463" y1="2064.2" x2="5007.0371" y2="2064.2" gradientTransform="matrix(1 0 0 1 -2283.7361 0)">
						<stop  offset="0" style="stop-color:#40447E"/>
						<stop  offset="0.9964" style="stop-color:#3C3B6B"/>
					</linearGradient>
					<path style="fill:url(#SVGID_00000132086137442160277440000001420537001922332822_);" d="M2713.527,2087.552
						c5.041,0,9.32-3.871,9.74-8.985c0.445-5.386-3.564-10.112-8.95-10.554l-330.018-27.131c-5.344-0.447-10.111,3.563-10.555,8.951
						c-0.444,5.386,3.565,10.112,8.95,10.554l330.018,27.131C2712.984,2087.541,2713.257,2087.552,2713.527,2087.552z"/>
				</g>
				<g>
					<g>
						
							<linearGradient id="SVGID_00000029735463508173760770000018170110336856972164_" gradientUnits="userSpaceOnUse" x1="3998.2742" y1="3155.459" x2="4019.4346" y2="3173.2529" gradientTransform="matrix(1 0 0 1 -2283.7361 0)">
							<stop  offset="0" style="stop-color:#AA80F9"/>
							<stop  offset="0.9964" style="stop-color:#6165D7"/>
						</linearGradient>
						<path style="fill:url(#SVGID_00000029735463508173760770000018170110336856972164_);" d="M1794.102,3190.202
							c0,27.787-17.124,50.313-38.247,50.313c-21.124,0-38.248-22.526-38.248-50.313c0-27.788,17.124-50.313,38.248-50.313
							C1776.978,3139.889,1794.102,3162.415,1794.102,3190.202z"/>
						
							<linearGradient id="SVGID_00000039103065356416277630000003071373097138843264_" gradientUnits="userSpaceOnUse" x1="4011.9976" y1="3195.8823" x2="4088.4922" y2="3195.8823" gradientTransform="matrix(1 0 0 1 -2283.7361 0)">
							<stop  offset="0" style="stop-color:#AA80F9"/>
							<stop  offset="0.9964" style="stop-color:#6165D7"/>
						</linearGradient>
						<path style="fill:url(#SVGID_00000039103065356416277630000003071373097138843264_);" d="M1804.756,3195.882
							c0,27.788-17.124,50.313-38.247,50.313c-21.123,0-38.248-22.525-38.248-50.313c0-27.787,17.125-50.313,38.248-50.313
							C1787.632,3145.57,1804.756,3168.096,1804.756,3195.882z"/>
						
							<linearGradient id="SVGID_00000085945481773840760640000010107018044841093025_" gradientUnits="userSpaceOnUse" x1="4034.2146" y1="3196.895" x2="4066.2676" y2="3196.895" gradientTransform="matrix(1 0 0 1 -2283.7361 0)">
							<stop  offset="0" style="stop-color:#40447E"/>
							<stop  offset="0.9964" style="stop-color:#3C3B6B"/>
						</linearGradient>
						<path style="fill:url(#SVGID_00000085945481773840760640000010107018044841093025_);" d="M1782.531,3196.896
							c0,11.643-7.175,21.082-16.026,21.082c-8.851,0-16.026-9.439-16.026-21.082c0-11.644,7.176-21.083,16.026-21.083
							C1775.357,3175.813,1782.531,3185.252,1782.531,3196.896z"/>
					</g>
					<path style="fill:#97A6B7;" d="M1755.855,3134.47v55.247c0,8.112,6.576,14.688,14.687,14.688l0,0
						c4.689,0,9.096-2.239,11.862-6.026l49.687-68.038L1755.855,3134.47z"/>
				</g>
				<g>
					<g>
						
							<linearGradient id="SVGID_00000139275340790937346200000016338115943277820291_" gradientUnits="userSpaceOnUse" x1="4352.8013" y1="3119.9673" x2="4373.9614" y2="3137.7612" gradientTransform="matrix(1 0 0 1 -2283.7361 0)">
							<stop  offset="0" style="stop-color:#AA80F9"/>
							<stop  offset="0.9964" style="stop-color:#6165D7"/>
						</linearGradient>
						<path style="fill:url(#SVGID_00000139275340790937346200000016338115943277820291_);" d="M2148.629,3154.71
							c0,27.788-17.124,50.313-38.248,50.313c-21.123,0-38.247-22.525-38.247-50.313c0-27.787,17.124-50.313,38.247-50.313
							C2131.505,3104.397,2148.629,3126.924,2148.629,3154.71z"/>
						
							<linearGradient id="SVGID_00000026150559931348354150000011444293694284299411_" gradientUnits="userSpaceOnUse" x1="4366.5244" y1="3160.3911" x2="4443.0195" y2="3160.3911" gradientTransform="matrix(1 0 0 1 -2283.7361 0)">
							<stop  offset="0" style="stop-color:#AA80F9"/>
							<stop  offset="0.9964" style="stop-color:#6165D7"/>
						</linearGradient>
						<path style="fill:url(#SVGID_00000026150559931348354150000011444293694284299411_);" d="M2159.283,3160.391
							c0,27.787-17.124,50.313-38.247,50.313c-21.124,0-38.248-22.526-38.248-50.313c0-27.787,17.124-50.313,38.248-50.313
							C2142.159,3110.078,2159.283,3132.604,2159.283,3160.391z"/>
						
							<linearGradient id="SVGID_00000011728403536798554860000015497321977996387970_" gradientUnits="userSpaceOnUse" x1="4388.7417" y1="3161.4038" x2="4420.7949" y2="3161.4038" gradientTransform="matrix(1 0 0 1 -2283.7361 0)">
							<stop  offset="0" style="stop-color:#40447E"/>
							<stop  offset="0.9964" style="stop-color:#3C3B6B"/>
						</linearGradient>
						<path style="fill:url(#SVGID_00000011728403536798554860000015497321977996387970_);" d="M2137.059,3161.403
							c0,11.644-7.175,21.083-16.026,21.083c-8.851,0-16.027-9.439-16.027-21.083c0-11.643,7.176-21.082,16.027-21.082
							C2129.884,3140.322,2137.059,3149.76,2137.059,3161.403z"/>
					</g>
					<path style="fill:#97A6B7;" d="M2110.381,3098.978v55.248c0,8.111,6.576,14.687,14.688,14.687l0,0
						c4.689,0,9.096-2.239,11.861-6.026l55.315-74.541L2110.381,3098.978z"/>
				</g>
				<g>
					<path style="fill:#BFC8D6;" d="M1240.014,2328.219c-3.171,0-5.851-2.453-6.083-5.666c-0.241-3.362,2.289-6.285,5.651-6.526
						l863.658-62.163c0.489-0.036,0.978-0.013,1.467,0.07l357.542,60.896c3.32,0.566,5.556,3.72,4.99,7.043
						c-0.566,3.322-3.72,5.554-7.04,4.992l-356.815-60.772l-862.925,62.109C1240.309,2328.214,1240.16,2328.219,1240.014,2328.219z"
						/>
				</g>
				<g>
					<g>
						<path style="fill:#CBD0D8;" d="M2044.87,2220.924c-0.364,0-0.735-0.059-1.099-0.182c-1.789-0.606-2.748-2.55-2.14-4.339
							c0.174-0.513,17.207-51.633,0.832-80.291c-5.408-9.465-14.042-15.491-25.664-17.915c-11.124-2.324-20.602-0.337-28.999,6.055
							c-27.421,20.872-31.571,80.963-31.61,81.567c-0.12,1.886-1.704,3.348-3.634,3.196c-1.886-0.12-3.316-1.748-3.196-3.634
							c0.167-2.596,4.416-63.831,34.296-86.574c9.929-7.56,21.554-10.021,34.539-7.309c13.628,2.842,23.794,9.986,30.215,21.231
							c17.898,31.344,0.451,83.662-0.301,85.875C2047.626,2220.027,2046.295,2220.924,2044.87,2220.924z"/>
					</g>
					<g>
						
							<linearGradient id="SVGID_00000117647791337306480190000004149808135451605682_" gradientUnits="userSpaceOnUse" x1="-1855.386" y1="3979.8442" x2="-2172.5439" y2="3934.7148" gradientTransform="matrix(-0.8544 0.5196 0.3302 0.9658 -1181.3267 -463.1131)">
							<stop  offset="0" style="stop-color:#AA80F9"/>
							<stop  offset="0.9964" style="stop-color:#6165D7"/>
						</linearGradient>
						<polygon style="fill:url(#SVGID_00000117647791337306480190000004149808135451605682_);" points="2097.143,2199.437 
							2104.15,2168.851 1898.472,2178.403 1859.063,2212.606 2007.05,2223.515 						"/>
						
							<linearGradient id="SVGID_00000046317955757408534940000000341167806911918266_" gradientUnits="userSpaceOnUse" x1="-1484.5004" y1="3689.7026" x2="-1492.0214" y2="4434.3145" gradientTransform="matrix(-0.8544 0.5196 0.5196 0.8544 -1323.4185 -379.5332)">
							<stop  offset="0" style="stop-color:#AA80F9"/>
							<stop  offset="0.9964" style="stop-color:#6165D7"/>
						</linearGradient>
						<polygon style="fill:url(#SVGID_00000046317955757408534940000000341167806911918266_);" points="2104.15,2168.851 
							2272.928,2567.819 2165.273,2710.797 2064.079,2346.774 2073.261,2192.023 						"/>
						
							<linearGradient id="SVGID_00000050664082999077884810000016549039899057975178_" gradientUnits="userSpaceOnUse" x1="-2273.9417" y1="4171.8535" x2="-1869.7572" y2="4171.8535" gradientTransform="matrix(-0.8544 0.5196 0.3302 0.9658 -1181.3267 -463.1131)">
							<stop  offset="0" style="stop-color:#AA80F9"/>
							<stop  offset="0.9964" style="stop-color:#6165D7"/>
						</linearGradient>
						<path style="fill:url(#SVGID_00000050664082999077884810000016549039899057975178_);" d="M2073.261,2192.023
							c-71.4,6.86-142.799,13.722-214.198,20.583c-19.866,180.259-22.932,267.557-42.797,447.816
							c100.449,44.548,227.828,74.348,349.008,50.375C2135.359,2547.65,2103.176,2355.17,2073.261,2192.023z"/>
					</g>
					<g>
						<path style="fill:#CBD0D8;" d="M1940.819,2228.125c-1.661,0-3.117-1.211-3.376-2.904c-0.394-2.569-9.378-63.293,14.931-91.916
							c8.078-9.511,18.901-14.405,32.166-14.545c13.98-0.172,25.381,4.65,34.066,14.256c24.203,26.776,18.384,81.619,18.124,83.941
							c-0.21,1.876-1.908,3.243-3.779,3.019c-1.878-0.209-3.229-1.901-3.021-3.779c0.059-0.538,5.732-54.121-16.408-78.6
							c-7.311-8.085-17.085-12.158-28.908-11.994c-11.352,0.119-20.192,4.088-27.024,12.133
							c-22.307,26.267-13.476,85.849-13.384,86.449c0.287,1.868-0.996,3.614-2.864,3.899
							C1941.167,2228.111,1940.993,2228.125,1940.819,2228.125z"/>
					</g>
				</g>
				<g>
					<g>
						
							<linearGradient id="SVGID_00000067230246208860431580000001540358327536900029_" gradientUnits="userSpaceOnUse" x1="-1131.6172" y1="2957.2012" x2="-1461.7555" y2="2910.2249" gradientTransform="matrix(-0.9552 0.2958 0.2958 0.9552 -401.1146 -127.607)">
							<stop  offset="0" style="stop-color:#FF9085"/>
							<stop  offset="1" style="stop-color:#FB6FBB"/>
						</linearGradient>
						<polygon style="fill:url(#SVGID_00000067230246208860431580000001540358327536900029_);" points="1994.819,2238.571 
							2004.7,2210.924 1772.905,2174.787 1726.372,2198.759 1891.984,2241.728 						"/>
						
							<linearGradient id="SVGID_00000023991316739857628350000010823461372888526468_" gradientUnits="userSpaceOnUse" x1="-905.8428" y1="2383.5791" x2="-740.8333" y2="2518.5872" gradientTransform="matrix(-1 0 0 1 1219.9541 0)">
							<stop  offset="0" style="stop-color:#FF9085"/>
							<stop  offset="1" style="stop-color:#FB6FBB"/>
						</linearGradient>
						<polygon style="fill:url(#SVGID_00000023991316739857628350000010823461372888526468_);" points="2004.7,2210.924 
							2168.247,2628.811 2037.882,2741.574 1948.002,2371.907 1968.464,2226.242 						"/>
						
							<linearGradient id="SVGID_00000034069348501058547510000003189013910434777524_" gradientUnits="userSpaceOnUse" x1="-1567.3022" y1="3157.0769" x2="-1111.228" y2="3157.0769" gradientTransform="matrix(-0.9552 0.2958 0.2958 0.9552 -401.1146 -127.607)">
							<stop  offset="0" style="stop-color:#FF9085"/>
							<stop  offset="1" style="stop-color:#FB6FBB"/>
						</linearGradient>
						<path style="fill:url(#SVGID_00000034069348501058547510000003189013910434777524_);" d="M1968.464,2226.242
							c-80.698-9.162-161.394-18.322-242.092-27.483c-34.141,167.657-63.299,305.088-97.441,472.747
							c137.769,3.783,271.182,66.286,408.951,70.069C2014.95,2579.294,1991.394,2388.522,1968.464,2226.242z"/>
						<g>
							<path style="fill:#CBD0D8;" d="M1888.319,2241.25c-0.508,0-1.024-0.114-1.51-0.353c-1.696-0.835-2.392-2.887-1.557-4.581
								c0.363-0.735,35.979-73.837,15.155-100.864c-7.259-9.423-21.193-12.124-41.407-8.028
								c-27.01,5.473-45.38,17.229-54.599,34.941c-15.92,30.581,0.631,69.33,0.8,69.717c0.755,1.733-0.037,3.749-1.768,4.504
								c-1.726,0.757-3.746-0.032-4.503-1.763c-0.745-1.702-18.035-42.067-0.621-75.581c10.215-19.656,30.176-32.617,59.33-38.525
								c22.996-4.66,39.207-1.104,48.19,10.561c23.408,30.388-12.883,104.905-14.44,108.063
								C1890.793,2240.55,1889.58,2241.25,1888.319,2241.25z"/>
						</g>
					</g>
				</g>
				<g>
					<path style="fill:#97A6B7;" d="M1533.475,2417.316c-0.602,0-1.198-0.088-1.771-0.264l-293.458-89.098
						c-3.225-0.979-5.046-4.388-4.069-7.614c0.984-3.225,4.405-5.049,7.615-4.067l292.296,88.746l926.544-90.249
						c3.303-0.331,6.343,2.13,6.665,5.484c0.328,3.355-2.128,6.34-5.484,6.668l-927.748,90.365
						C1533.869,2417.308,1533.672,2417.316,1533.475,2417.316z"/>
				</g>
				<g>
					<path style="fill:#CBD0D8;" d="M2349.508,2732.552c-0.304,0-0.62-0.024-0.93-0.072l-352.32-54.056l-535.759,51.568
						c-3.332,0.328-6.337-2.137-6.662-5.492c-0.322-3.355,2.137-6.337,5.493-6.66l536.516-51.642
						c0.501-0.052,1.007-0.036,1.508,0.042l353.071,54.171c3.332,0.511,5.621,3.627,5.109,6.96
						C2355.07,2730.392,2352.471,2732.552,2349.508,2732.552z"/>
				</g>
				<g>
					<path style="fill:#97A6B7;" d="M1711.575,2793.21c-2.343,0-4.501-1.346-5.514-3.49l-178.1-375.894
						c-1.449-3.046-0.149-6.687,2.903-8.131c3.034-1.443,6.683-0.143,8.125,2.903l176.27,372.025l633.665-60.254
						c3.41-0.31,6.337,2.146,6.653,5.499c0.322,3.356-2.14,6.335-5.496,6.656l-637.927,60.659
						C1711.957,2793.201,1711.766,2793.21,1711.575,2793.21z"/>
				</g>
				<g>
					<path style="fill:#97A6B7;" d="M1711.581,2793.212c-0.495,0-0.995-0.06-1.49-0.185l-251.663-63.188
						c-1.648-0.414-3.052-1.498-3.869-2.991l-219.895-401.803c-1.619-2.957-0.531-6.666,2.426-8.285
						c2.96-1.623,6.668-0.534,8.286,2.425l218.614,399.462l249.07,62.539c3.273,0.821,5.258,4.137,4.435,7.407
						C1716.798,2791.364,1714.312,2793.212,1711.581,2793.212z"/>
				</g>
				<g>
					<path style="fill:#97A6B7;" d="M1598.257,2554.041c-0.578,0-1.156-0.082-1.717-0.246l-276.385-81.011
						c-3.234-0.949-5.088-4.34-4.14-7.575c0.948-3.236,4.349-5.081,7.574-4.142l275.282,80.688l816.844-71.244
						c3.356-0.274,6.325,2.194,6.611,5.552c0.292,3.359-2.194,6.319-5.55,6.611l-817.988,71.345
						C1598.608,2554.033,1598.436,2554.041,1598.257,2554.041z"/>
				</g>
				<g>
					<path style="fill:#97A6B7;" d="M1665.775,2696.549c-0.554,0-1.109-0.076-1.645-0.227l-264.772-74.178
						c-3.249-0.909-5.142-4.279-4.233-7.525c0.903-3.247,4.277-5.143,7.523-4.231l263.705,73.879l709.391-62.06
						c3.35-0.302,6.319,2.191,6.611,5.549c0.292,3.359-2.188,6.319-5.55,6.613l-710.5,62.157
						C1666.132,2696.542,1665.953,2696.549,1665.775,2696.549z"/>
				</g>
				<g>
					<path style="fill:#97A6B7;" d="M1841.836,2780.826c-2.635,0-5.061-1.712-5.848-4.362l-113.575-381.057
						c-0.966-3.231,0.876-6.63,4.107-7.593c3.243-0.979,6.635,0.881,7.589,4.106l113.575,381.057
						c0.966,3.231-0.876,6.63-4.107,7.593C1842.999,2780.744,1842.408,2780.826,1841.836,2780.826z"/>
				</g>
				<g>
					<path style="fill:#97A6B7;" d="M1967.477,2768.878c-2.909,0-5.484-2.083-6.003-5.045l-68.12-386.058
						c-0.59-3.32,1.627-6.487,4.948-7.073c3.32-0.575,6.486,1.632,7.07,4.951l68.12,386.058c0.59,3.321-1.627,6.488-4.948,7.073
						C1968.186,2768.846,1967.829,2768.878,1967.477,2768.878z"/>
				</g>
				<g>
					<path style="fill:#97A6B7;" d="M2109.177,2752.752c-3.213,0-5.907-2.513-6.086-5.763l-21.467-383.337
						c-0.191-3.367,2.384-6.247,5.752-6.437c3.326-0.179,6.248,2.389,6.432,5.754l21.467,383.337
						c0.191,3.366-2.384,6.247-5.753,6.437C2109.41,2752.75,2109.291,2752.752,2109.177,2752.752z"/>
				</g>
				<g>
					<path style="fill:#97A6B7;" d="M2243.438,2737.718c-0.107,0-0.215-0.003-0.328-0.009c-3.362-0.176-5.949-3.049-5.777-6.416
						l20.429-389.447c0.179-3.367,2.862-5.954,6.42-5.775c3.362,0.176,5.949,3.049,5.776,6.416l-20.429,389.447
						C2249.358,2735.192,2246.664,2737.718,2243.438,2737.718z"/>
				</g>
				<g>
					<path style="fill:#97A6B7;" d="M1635.473,2774.101c-2.271,0-4.453-1.274-5.508-3.459l-183.573-381.554
						c-1.46-3.039-0.182-6.686,2.855-8.148c3.034-1.455,6.689-0.185,8.149,2.854l183.573,381.554
						c1.46,3.039,0.185,6.686-2.855,8.148C1637.262,2773.906,1636.361,2774.101,1635.473,2774.101z"/>
				</g>
				<g>
					<path style="fill:#97A6B7;" d="M1533.481,2748.493c-2.241,0-4.399-1.239-5.466-3.38l-194.858-390.337
						c-1.508-3.016-0.283-6.681,2.733-8.188c3.022-1.507,6.683-0.279,8.188,2.736l194.858,390.337
						c1.508,3.016,0.28,6.681-2.736,8.188C1535.329,2748.286,1534.393,2748.493,1533.481,2748.493z"/>
				</g>
				<g>
					<path style="fill:#97A6B7;" d="M1753.931,3145.994c-0.769,0-1.532-0.145-2.253-0.431l-363.032-144.081
						c-3.136-1.243-4.668-4.791-3.425-7.926c1.243-3.133,4.796-4.671,7.926-3.422l361.59,143.507l438.926-53.621
						c32.763-4.001,59.595-27.148,68.358-58.965l240.068-871.533c10.516-38.175,44.114-65.749,83.608-68.613l127.375-9.233
						c3.297-0.258,6.283,2.283,6.528,5.647c0.244,3.362-2.283,6.286-5.645,6.529l-127.376,9.233
						c-34.349,2.492-63.572,26.476-72.722,59.68l-240.068,871.531c-10.081,36.607-40.948,63.238-78.648,67.843l-440.47,53.808
						C1754.425,3145.979,1754.175,3145.994,1753.931,3145.994z"/>
				</g>
			</g>
			
				<linearGradient id="SVGID_00000171000864595799726050000000268008407852487841_" gradientUnits="userSpaceOnUse" x1="2883.5217" y1="1999.574" x2="2848.9233" y2="2053.0444" gradientTransform="matrix(1 0 0 1 -374.42 0)">
				<stop  offset="0" style="stop-color:#311944"/>
				<stop  offset="1" style="stop-color:#A03976"/>
			</linearGradient>
			<path style="fill:url(#SVGID_00000171000864595799726050000000268008407852487841_);" d="M2515.804,2051.693
				c0,0-31.551-27.556-61.216-17.823c-4.232,1.39-11.697,4.3-15.641,11.8c-4.259,8.099-2.705,18.64,2.664,25.281
				c7.669,9.486,22.396,9.507,36.71-3.139c-1.264-0.329-9.066,1.784-11.145-5.219c0,0-1.517-1.434-0.447-4.761
				C2470.496,2046.097,2512.959,2051.595,2515.804,2051.693z"/>
		</g>
	</g>
</g>
</svg>
