<?xml version="1.0" encoding="utf-8"?>
<!-- Generator: Adobe Illustrator 15.0.0, SVG Export Plug-In . SVG Version: 6.00 Build 0)  -->
<!DOCTYPE svg PUBLIC "-//W3C//DTD SVG 1.1//EN" "http://www.w3.org/Graphics/SVG/1.1/DTD/svg11.dtd">
<svg version="1.1" id="Layer_1" xmlns="http://www.w3.org/2000/svg" xmlns:xlink="http://www.w3.org/1999/xlink" x="0px" y="0px"
	 width="194px" height="26px" viewBox="0 0 194 26" enableBackground="new 0 0 194 26" xml:space="preserve">
<g>
	<path fillRule="evenodd" clipRule="evenodd" fill="#EF7D00" d="M7.332,6.688c5.04-4.988,11.138-6.28,13.593-2.869
		c2.43,3.411,0.285,10.285-4.754,15.273c-5.039,5.012-11.139,6.305-13.594,2.894C0.149,18.548,2.293,11.701,7.332,6.688"/>
	<path fillRule="evenodd" clipRule="evenodd" fill="#AD2221" d="M10.667,4.025c-0.543,0.414-1.112,0.879-1.654,1.421
		C4.593,9.814,2.759,15.782,4.929,18.781c2.248,2.997,7.675,1.913,12.172-2.507c2.429-2.351,4.057-5.116,4.729-7.649
		c0.207-1.886-0.078-3.541-0.905-4.807C18.987,1.157,14.827,1.364,10.667,4.025"/>
	<path fillRule="evenodd" clipRule="evenodd" fill="#FFFFFF" d="M13.173,21.572c-2.351,1.783-4.807,2.662-7.185,2.273
		c1.008,0.053,1.81-1.059,2.481-2.531c0.673-1.525,1.06-2.946,1.396-4.264c0.466-2.095,0.491-3.593,0.259-3.929
		c-0.414-0.516-1.319-0.387-2.353,0.207c-0.516,0.285-1.163,0.104-0.387-0.852c0.801-0.956,3.927-3.255,5.064-3.618
		c1.241-0.362,2.663,0.13,2.171,1.499C14.285,11.338,9.943,22.761,13.173,21.572 M16.739,3.87c0.594,0.595,0.233,1.887-0.775,2.895
		c-1.008,0.982-2.326,1.344-2.895,0.775c-0.621-0.595-0.258-1.886,0.75-2.92C14.853,3.612,16.171,3.302,16.739,3.87"/>
	<polygon fill="#00447C" points="21.886,23.889 24.779,13.046 28.625,13.046 25.733,23.889 	"/>
	<path fill="#00447C" d="M37.96,16.541c0.038-0.524-0.086-0.919-0.374-1.185c-0.29-0.264-0.737-0.396-1.351-0.396
		c-0.976,0-1.806,0.298-2.493,0.894c-0.685,0.595-1.173,1.44-1.466,2.539c-0.283,1.059-0.239,1.872,0.127,2.439
		c0.366,0.569,1.03,0.854,1.994,0.854c0.705,0,1.312-0.164,1.82-0.491c0.505-0.323,0.894-0.803,1.165-1.435h3.982
		c-0.523,1.421-1.42,2.469-2.689,3.146c-1.271,0.675-2.992,1.014-5.159,1.014c-2.091,0-3.592-0.472-4.51-1.417
		c-0.914-0.945-1.144-2.27-0.692-3.966c0.496-1.856,1.48-3.29,2.953-4.296c1.475-1.006,3.331-1.51,5.563-1.51
		c1.938,0,3.334,0.319,4.189,0.959c0.852,0.639,1.156,1.59,0.906,2.85H37.96z"/>
	<polygon fill="#00447C" points="41.319,23.889 44.213,13.046 48.059,13.046 45.166,23.889 	"/>
	<path fill="#00447C" d="M57.393,16.541c0.04-0.524-0.086-0.919-0.374-1.185c-0.289-0.264-0.738-0.396-1.351-0.396
		c-0.976,0-1.806,0.298-2.494,0.894c-0.684,0.595-1.172,1.44-1.466,2.539c-0.282,1.059-0.239,1.872,0.128,2.439
		c0.366,0.569,1.03,0.854,1.994,0.854c0.705,0,1.312-0.164,1.82-0.491c0.506-0.323,0.894-0.803,1.165-1.435h3.981
		c-0.522,1.421-1.419,2.469-2.688,3.146c-1.272,0.675-2.992,1.014-5.158,1.014c-2.092,0-3.594-0.472-4.511-1.417
		c-0.914-0.945-1.144-2.27-0.692-3.966c0.496-1.856,1.48-3.29,2.955-4.296c1.474-1.006,3.33-1.51,5.562-1.51
		c1.938,0,3.335,0.319,4.19,0.959c0.852,0.639,1.155,1.59,0.906,2.85H57.393z"/>
	<polygon fill="#00447C" points="60.752,23.889 63.646,13.046 67.493,13.046 64.599,23.889 	"/>
	<polygon fill="#00447C" points="72.646,23.889 70.113,23.889 73.006,13.046 75.541,13.046 74.379,17.398 80.374,17.398 
		81.536,13.046 84.069,13.046 81.175,23.889 78.642,23.889 79.907,19.148 73.912,19.148 	"/>
	<path fill="#00447C" d="M94.005,20.109c-0.333,1.249-1.028,2.223-2.083,2.919c-1.056,0.695-2.367,1.043-3.936,1.043
		c-1.56,0-2.686-0.348-3.374-1.046c-0.688-0.701-0.866-1.671-0.535-2.916c0.333-1.244,1.028-2.216,2.091-2.916
		c1.061-0.698,2.373-1.047,3.933-1.047c1.568,0,2.694,0.349,3.378,1.045C94.164,17.886,94.339,18.86,94.005,20.109 M86.55,20.109
		c-0.191,0.719-0.118,1.31,0.227,1.767c0.344,0.459,0.882,0.687,1.617,0.687c0.732,0,1.394-0.228,1.982-0.687
		c0.591-0.457,0.982-1.048,1.175-1.767c0.191-0.72,0.115-1.31-0.232-1.767c-0.343-0.459-0.884-0.688-1.616-0.688
		c-0.734,0-1.395,0.229-1.983,0.688C87.131,18.8,86.742,19.39,86.55,20.109"/>
	<path fill="#00447C" d="M107.198,23.889l1.055-3.948c0.204-0.765,0.204-1.34,0.001-1.723c-0.201-0.385-0.608-0.577-1.218-0.577
		c-0.625,0-1.206,0.223-1.737,0.672c-0.53,0.448-0.889,1.019-1.073,1.708l-1.031,3.868h-2.267l1.055-3.948
		c0.201-0.76,0.201-1.332,0-1.721c-0.202-0.387-0.606-0.579-1.21-0.579c-0.619,0-1.198,0.226-1.732,0.677
		c-0.534,0.448-0.895,1.02-1.077,1.703l-1.032,3.868h-2.313l1.427-5.346c0.03-0.112,0.083-0.351,0.158-0.72
		c0.076-0.369,0.174-0.865,0.295-1.492h2.229l-0.267,1.31c0.475-0.5,1.001-0.872,1.576-1.116c0.576-0.242,1.223-0.362,1.938-0.362
		c0.735,0,1.314,0.125,1.745,0.379c0.433,0.253,0.7,0.625,0.808,1.114c0.546-0.52,1.104-0.898,1.667-1.138
		c0.563-0.238,1.189-0.355,1.876-0.355c0.575,0,1.073,0.081,1.493,0.242c0.417,0.162,0.743,0.397,0.971,0.706
		c0.192,0.264,0.301,0.57,0.324,0.911c0.022,0.344-0.051,0.839-0.224,1.486l-1.17,4.381H107.198z"/>
	<path fill="#00447C" d="M114.288,20.685l-0.021,0.072c-0.167,0.628-0.09,1.108,0.229,1.447c0.319,0.339,0.854,0.508,1.607,0.508
		c0.52,0,0.967-0.109,1.343-0.326c0.378-0.218,0.645-0.525,0.808-0.921h2.278c-0.332,0.823-0.928,1.466-1.788,1.927
		c-0.86,0.465-1.893,0.696-3.099,0.696c-1.495,0-2.572-0.341-3.226-1.02c-0.655-0.679-0.821-1.627-0.497-2.841
		c0.337-1.265,1.022-2.262,2.052-2.989c1.031-0.728,2.279-1.092,3.745-1.092c1.448,0,2.447,0.357,2.994,1.067
		s0.635,1.767,0.262,3.169l-0.081,0.302H114.288z M114.642,19.362l4.267-0.008c0.127-0.569,0.048-0.999-0.23-1.293
		c-0.281-0.291-0.761-0.437-1.438-0.437c-0.604,0-1.137,0.153-1.599,0.459C115.181,18.391,114.846,18.817,114.642,19.362"/>
	<polygon fill="#00447C" points="125.075,23.889 127.969,13.046 136.932,13.046 136.493,14.691 129.992,14.691 129.278,17.367 
		135.252,17.367 134.798,19.073 128.822,19.073 127.538,23.889 	"/>
	<path fill="#00447C" d="M135.467,23.889l2.018-7.558h2.426l-2.018,7.558H135.467z M140.863,13.046l-0.523,1.961h-2.58l0.525-1.961
		H140.863z"/>
	<path fill="#00447C" d="M140.189,23.889l1.426-5.346c0.038-0.14,0.096-0.396,0.171-0.765c0.075-0.367,0.17-0.852,0.282-1.447h2.299
		l-0.258,1.31c0.491-0.495,1.041-0.866,1.642-1.109c0.603-0.247,1.269-0.369,2.004-0.369c1.138,0,1.95,0.271,2.438,0.813
		c0.488,0.541,0.604,1.3,0.345,2.275l-1.238,4.638h-2.28l1.053-3.948c0.204-0.765,0.186-1.34-0.057-1.723
		c-0.237-0.385-0.697-0.577-1.373-0.577c-0.706,0-1.352,0.223-1.938,0.672c-0.586,0.448-0.969,1.019-1.153,1.708l-1.033,3.868
		H140.189z"/>
	<path fill="#00447C" d="M157.149,23.889l0.21-1.038c-0.461,0.403-0.977,0.707-1.549,0.913c-0.573,0.205-1.19,0.308-1.853,0.308
		c-1.014,0-1.755-0.221-2.226-0.662c-0.468-0.438-0.604-1.033-0.405-1.777c0.239-0.897,0.803-1.54,1.688-1.929
		c0.888-0.389,2.258-0.585,4.111-0.585h1.212l0.037-0.141c0.146-0.545,0.11-0.949-0.103-1.215c-0.214-0.263-0.617-0.396-1.215-0.396
		c-0.533,0-0.962,0.084-1.285,0.257c-0.321,0.172-0.553,0.433-0.691,0.781l-2.224,0.008c0.246-0.72,0.773-1.279,1.576-1.674
		c0.802-0.395,1.819-0.593,3.057-0.593c1.302,0,2.214,0.253,2.734,0.76c0.52,0.51,0.648,1.265,0.38,2.27l-0.81,3.028
		c-0.086,0.324-0.157,0.623-0.214,0.9c-0.055,0.277-0.099,0.537-0.128,0.784H157.149z M157.997,20.397h-1.463
		c-0.923,0-1.597,0.098-2.023,0.291c-0.423,0.193-0.698,0.517-0.818,0.972c-0.098,0.364-0.035,0.637,0.188,0.826
		c0.222,0.188,0.593,0.284,1.112,0.284c0.728,0,1.358-0.202,1.893-0.604c0.535-0.4,0.893-0.945,1.077-1.637L157.997,20.397z"/>
	<path fill="#00447C" d="M161.504,23.889l1.427-5.346c0.038-0.14,0.096-0.396,0.171-0.765c0.074-0.367,0.169-0.852,0.282-1.447h2.3
		l-0.259,1.31c0.49-0.495,1.041-0.866,1.643-1.109c0.603-0.247,1.269-0.369,2.002-0.369c1.139,0,1.951,0.271,2.439,0.813
		c0.488,0.541,0.604,1.3,0.343,2.275l-1.237,4.638h-2.281l1.053-3.948c0.204-0.765,0.187-1.34-0.055-1.723
		c-0.239-0.385-0.697-0.577-1.375-0.577c-0.706,0-1.351,0.223-1.937,0.672c-0.588,0.448-0.971,1.019-1.154,1.708l-1.032,3.868
		H161.504z"/>
	<path fill="#00447C" d="M179.693,21.205h2.356c-0.293,0.896-0.9,1.599-1.816,2.106c-0.917,0.507-2.037,0.76-3.364,0.76
		c-1.511,0-2.594-0.341-3.252-1.026c-0.657-0.683-0.821-1.636-0.495-2.862c0.346-1.293,1.036-2.289,2.071-2.989
		c1.035-0.697,2.339-1.047,3.913-1.047c1.218,0,2.14,0.237,2.762,0.705c0.624,0.472,0.856,1.102,0.701,1.891h-2.234
		c-0.02-0.367-0.176-0.649-0.469-0.849c-0.29-0.198-0.698-0.298-1.226-0.298c-0.777,0-1.424,0.215-1.94,0.647
		c-0.519,0.431-0.887,1.059-1.106,1.882c-0.219,0.817-0.178,1.438,0.119,1.856c0.297,0.42,0.848,0.627,1.653,0.627
		c0.593,0,1.092-0.12,1.488-0.359C179.253,22.009,179.531,21.66,179.693,21.205"/>
	<path fill="#00447C" d="M185.509,20.685l-0.02,0.072c-0.167,0.628-0.091,1.108,0.229,1.447c0.317,0.339,0.854,0.508,1.606,0.508
		c0.521,0,0.967-0.109,1.342-0.326c0.38-0.218,0.646-0.525,0.81-0.921h2.278c-0.332,0.823-0.928,1.466-1.788,1.927
		c-0.861,0.465-1.895,0.696-3.101,0.696c-1.493,0-2.57-0.341-3.224-1.02c-0.656-0.679-0.821-1.627-0.497-2.841
		c0.337-1.265,1.021-2.262,2.052-2.989c1.029-0.728,2.278-1.092,3.744-1.092c1.449,0,2.446,0.357,2.995,1.067
		c0.547,0.71,0.635,1.767,0.261,3.169l-0.08,0.302H185.509z M185.861,19.362l4.268-0.008c0.126-0.569,0.048-0.999-0.23-1.293
		c-0.282-0.291-0.762-0.437-1.438-0.437c-0.604,0-1.139,0.153-1.601,0.459C186.402,18.391,186.066,18.817,185.861,19.362"/>
</g>
</svg>
